<?xml version="1.0" standalone="no"?>
<!DOCTYPE svg PUBLIC "-//W3C//DTD SVG 20010904//EN"
 "http://www.w3.org/TR/2001/REC-SVG-20010904/DTD/svg10.dtd">
<svg version="1.0" xmlns="http://www.w3.org/2000/svg"
 width="160.000000pt" height="160.000000pt" viewBox="0 0 160.000000 160.000000"
 preserveAspectRatio="xMidYMid meet">
<metadata>
Created by potrace 1.11, written by Peter Selinger 2001-2013
</metadata>
<g transform="translate(0.000000,160.000000) scale(0.100000,-0.100000)"
fill="#000000" stroke="none">
<path d="M250 1293 c-33 -90 -66 -139 -113 -168 -50 -32 -80 -72 -107 -143
-21 -55 -14 -72 28 -72 14 0 66 -18 116 -40 105 -45 144 -52 203 -35 l42 13
-4 -82 c-7 -138 26 -234 115 -325 57 -59 104 -84 185 -101 99 -21 219 1 334
60 51 25 60 18 54 -38 -8 -75 3 -97 85 -167 104 -89 191 -143 203 -124 5 8 9
22 9 32 0 11 31 60 69 110 97 131 104 147 105 242 0 65 -9 91 -28 76 -28 -24
-80 -14 -160 29 -92 50 -124 53 -175 12 -63 -50 -64 -50 -55 4 37 245 -55 420
-254 480 -42 13 -142 19 -182 11 -69 -14 -145 -54 -191 -101 l-26 -26 7 39
c17 93 -8 172 -81 254 -41 48 -129 117 -147 117 -6 0 -20 -26 -32 -57z"/>
</g>
</svg>
