<?xml version="1.0" standalone="no"?>
<!DOCTYPE svg PUBLIC "-//W3C//DTD SVG 20010904//EN"
 "http://www.w3.org/TR/2001/REC-SVG-20010904/DTD/svg10.dtd">
<svg version="1.0" xmlns="http://www.w3.org/2000/svg"
 width="1500.000000pt" height="1500.000000pt" viewBox="0 0 1500.000000 1500.000000"
 preserveAspectRatio="xMidYMid meet">
<metadata>
Created by potrace 1.11, written by Peter Selinger 2001-2013
</metadata>
<g transform="translate(0.000000,1500.000000) scale(0.100000,-0.100000)"
fill="#000000" stroke="none">
<path d="M3665 14790 c-374 -41 -658 -207 -785 -459 -26 -52 -68 -222 -229
-919 -130 -562 -203 -859 -212 -864 -8 -4 -390 -93 -849 -199 -920 -210 -928
-213 -1056 -318 -150 -122 -261 -334 -309 -591 -22 -115 -25 -375 -6 -495 60
-381 224 -702 488 -956 211 -202 486 -345 790 -408 106 -23 1404 -194 1593
-211 142 -12 334 -12 460 0 52 5 96 8 97 6 2 -2 -17 -54 -42 -116 -168 -418
-270 -863 -306 -1330 -15 -196 -6 -638 15 -820 144 -1194 718 -2229 1652
-2976 133 -106 407 -292 558 -379 831 -475 1807 -667 2759 -545 352 45 700
131 1017 252 l65 25 -3 -126 c-2 -69 1 -184 7 -255 16 -187 187 -1494 211
-1608 144 -684 661 -1168 1365 -1279 120 -19 380 -16 495 6 257 48 470 160
594 311 101 122 105 137 315 1054 105 459 195 841 199 849 5 9 302 82 864 212
737 170 864 202 924 232 225 115 377 349 439 677 22 115 25 375 6 495 -59 374
-206 669 -461 926 -227 228 -490 369 -815 438 -140 30 -1523 208 -1677 217
-71 4 -128 9 -128 11 0 2 13 29 29 61 16 31 49 105 74 164 336 785 435 1681
281 2533 -189 1047 -759 1999 -1598 2669 -250 200 -525 375 -811 515 -512 252
-1052 398 -1635 442 -194 14 -625 6 -810 -15 -514 -61 -981 -195 -1429 -412
-84 -41 -155 -74 -157 -74 -2 0 -4 57 -4 128 0 190 -11 295 -110 1052 -99 764
-106 806 -157 965 -77 239 -195 441 -359 614 -250 263 -583 435 -949 490 -102
15 -308 21 -400 11z m2446 -3846 c-33 -165 -44 -290 -44 -489 1 -207 17 -371
59 -567 156 -740 595 -1440 1190 -1900 95 -73 280 -196 351 -232 43 -23 63
-44 126 -134 228 -326 451 -734 582 -1067 285 -720 389 -1474 306 -2200 -18
-153 -64 -431 -73 -441 -8 -7 -307 -64 -423 -80 -162 -22 -603 -30 -788 -14
-78 6 -209 23 -292 36 -143 23 -425 88 -453 103 -9 5 3 28 45 82 506 645 866
1534 997 2459 37 260 49 428 49 695 1 226 -18 521 -33 530 -3 2 -82 16 -176
30 -971 151 -1772 490 -2411 1020 -134 111 -321 298 -432 430 -99 120 -241
313 -241 329 1 14 105 177 187 293 279 395 643 738 1058 995 152 95 429 241
433 229 2 -5 -6 -53 -17 -107z m3348 41 c214 -107 458 -264 656 -421 141 -113
446 -417 559 -559 75 -94 286 -395 286 -408 0 -2 -44 -7 -97 -11 -564 -39
-1113 -191 -1634 -451 -196 -98 -284 -149 -470 -271 -444 -292 -793 -647 -995
-1012 -51 -91 -52 -92 -57 -60 -32 178 -33 702 -2 937 117 908 553 1614 1305
2116 120 80 317 195 333 195 4 0 56 -25 116 -55z m267 -2879 c628 -81 1206
-360 1683 -812 l94 -90 -12 -94 c-72 -563 -282 -1120 -606 -1605 -91 -136
-277 -376 -328 -424 l-26 -24 -5 24 c-3 13 -21 92 -41 174 -200 821 -786 1573
-1598 2049 -145 85 -424 218 -577 274 -141 52 -365 118 -509 149 l-84 18 149
62 c434 179 851 283 1279 317 102 8 464 -3 581 -18z m-2067 -433 c-408 -681
-848 -1199 -1382 -1625 -420 -337 -920 -612 -1400 -772 -59 -20 -113 -36 -120
-36 -6 1 -39 38 -73 83 -347 468 -571 972 -684 1536 -17 84 -29 155 -27 157 2
2 53 -7 113 -21 268 -59 504 -79 868 -72 355 7 577 31 926 103 396 81 808 209
1168 365 138 60 483 234 562 283 30 19 59 35 63 35 5 1 -1 -16 -14 -36z"/>
</g>
</svg>
